# xmcd
#
# Track frame offsets: 
#        150
#        14711
#        28931
#        55989
#        76913
#        90583
#        105886
#        125616
#        138058
#        154472
#        180880
#        196700
#        217014
#        235544
#        251750
#
# Disc length: 3585 seconds
#
# Revision: 1
# Processed by: cddbd v1.5PL3 Copyright (c) Steve Scherf et al.
# Submitted via: ExactAudioCopy v0.95a4
#
DISCID=be0dff0f
DTITLE=Paul James Band - La Vie en Bleu
DYEAR=2004
DGENRE=Blues
TTITLE0=The Last Clean Shirt
TTITLE1=Louie Louie
TTITLE2=Like a Rolling Stone
TTITLE3=Carol
TTITLE4=Red Hot Mama
TTITLE5=Take it Easy
TTITLE6=Red Rooster
TTITLE7=Hey Now Rosie
TTITLE8=Caladonia
TTITLE9=It's All Over Now Baby Blue
TTITLE10=Gloria
TTITLE11=Highway 61
TTITLE12=Sweet Virginia
TTITLE13=Gotta Give Me Some of It
TTITLE14=(I Can't Get No) Satisfaction
EXTD=YEAR: 2004
EXTT0=
EXTT1=
EXTT2=
EXTT3=
EXTT4=
EXTT5=
EXTT6=
EXTT7=
EXTT8=
EXTT9=
EXTT10=
EXTT11=
EXTT12=
EXTT13=
EXTT14=
PLAYORDER=
